<?xml version="1.0" encoding="UTF-8" standalone="no"?>
<!-- Created with Inkscape (http://www.inkscape.org/) -->

<svg
   xmlns:dc="http://purl.org/dc/elements/1.1/"
   xmlns:cc="http://creativecommons.org/ns#"
   xmlns:rdf="http://www.w3.org/1999/02/22-rdf-syntax-ns#"
   xmlns:svg="http://www.w3.org/2000/svg"
   xmlns="http://www.w3.org/2000/svg"
   xmlns:sodipodi="http://sodipodi.sourceforge.net/DTD/sodipodi-0.dtd"
   xmlns:inkscape="http://www.inkscape.org/namespaces/inkscape"
   width="999.50763"
   height="203.91545"
   id="svg3513"
   version="1.1"
   inkscape:version="0.92.3 (2405546, 2018-03-11)"
   sodipodi:docname="logo-2.svg">
  <defs
     id="defs3515" />
  <sodipodi:namedview
     id="base"
     pagecolor="#ffffff"
     bordercolor="#666666"
     borderopacity="1.0"
     inkscape:pageopacity="0.0"
     inkscape:pageshadow="2"
     inkscape:zoom="1.4142136"
     inkscape:cx="305.76707"
     inkscape:cy="35.473343"
     inkscape:document-units="px"
     inkscape:current-layer="layer1"
     showgrid="false"
     showguides="false"
     inkscape:guide-bbox="true"
     fit-margin-top="0"
     fit-margin-left="0"
     fit-margin-right="0"
     fit-margin-bottom="0"
     inkscape:window-width="2560"
     inkscape:window-height="1052"
     inkscape:window-x="1920"
     inkscape:window-y="0"
     inkscape:window-maximized="1">
    <sodipodi:guide
       orientation="0,1"
       position="456.24973,24.90654"
       id="guide4392"
       inkscape:locked="false" />
  </sodipodi:namedview>
  <metadata
     id="metadata3518">
    <rdf:RDF>
      <cc:Work
         rdf:about="">
        <dc:format>image/svg+xml</dc:format>
        <dc:type
           rdf:resource="http://purl.org/dc/dcmitype/StillImage" />
        <dc:title />
      </cc:Work>
    </rdf:RDF>
  </metadata>
  <g
     inkscape:label="Layer 1"
     inkscape:groupmode="layer"
     id="layer1"
     transform="translate(29.534352,-173.42434)">
    <path
       sodipodi:nodetypes="cccccccccc"
       style="display:inline;opacity:1;fill:#4ebc9e;fill-opacity:1;stroke:none;stroke-width:2.66780853;stroke-linecap:round;stroke-linejoin:round;stroke-miterlimit:4;stroke-dasharray:none;stroke-opacity:1"
       d="m 33.118012,227.12707 c -3.790367,0.0809 -7.753729,0.85901 -11.772356,2.31065 -0.701426,0.31586 -1.385272,0.66397 -2.051465,1.04403 -7.822165,4.53771 -13.0066306,13.29445 -14.2736696,24.61409 l 28.0166706,0.002 28.016709,0.003 c -1.2178,-11.43614 -6.246863,-20.29054 -14.123073,-24.86655 -0.666082,-0.37999 -1.350379,-0.72805 -2.051514,-1.04407 -4.014633,-1.45033 -7.974253,-1.98005 -11.761302,-2.06241 z"
       id="path943"
       inkscape:connector-curvature="0"
       inkscape:export-xdpi="96"
       inkscape:export-ydpi="96" />
    <path
       sodipodi:type="inkscape:offset"
       inkscape:radius="0.90553397"
       inkscape:original="M 152.73242 107.4375 A 0.67987588 0.67987588 0 0 0 152.05469 108.16406 C 152.1232 109.15263 152.35211 110.16232 152.72266 111.16406 A 0.67987588 0.67987588 0 0 0 153.35938 111.60742 L 160.05859 111.60742 A 0.67987588 0.67987588 0 0 0 160.70703 111.13281 C 161.01824 110.15233 161.30826 109.15368 161.37891 108.16992 A 0.67987588 0.67987588 0 0 0 160.70117 107.44141 L 152.73242 107.4375 z "
       style="display:inline;opacity:1;fill:#4ebc9e;fill-opacity:1;stroke:none;stroke-width:0.37767333;stroke-linecap:round;stroke-linejoin:round;stroke-miterlimit:4;stroke-dasharray:none;stroke-opacity:1"
       id="path945"
       d="m 152.73242,106.53125 c -0.86601,6.9e-4 -1.6415,0.83134 -1.58203,1.69531 0.0752,1.08493 0.32552,2.17833 0.72266,3.25196 0.22327,0.60172 0.84451,1.0345 1.48633,1.03515 h 6.69921 c 0.66827,2.9e-4 1.30996,-0.47034 1.51172,-1.10742 0.31577,-0.99485 0.63074,-2.05518 0.71094,-3.17187 0.0621,-0.86543 -0.71243,-1.69872 -1.58008,-1.69922 z"
       transform="matrix(4.525452,0,0,4.525452,-676.05672,-220.8565)"
       inkscape:export-xdpi="96"
       inkscape:export-ydpi="96" />
    <path
       sodipodi:type="inkscape:offset"
       inkscape:radius="0.56910044"
       inkscape:original="M 154 111.91016 A 0.4498838 0.4498838 0 0 0 153.59375 112.55273 C 153.66516 112.70199 153.73996 112.85159 153.81641 112.99805 C 154.51033 114.31695 155.40707 115.50822 156.40625 116.43164 A 0.4498838 0.4498838 0 0 0 157.01562 116.43164 C 158.0148 115.50822 158.91155 114.31695 159.60547 112.99805 A 0.4498838 0.4498838 0 0 0 159.60742 112.99219 C 159.68185 112.84565 159.75483 112.69799 159.82422 112.54883 A 0.4498838 0.4498838 0 0 0 159.41602 111.91016 L 154 111.91016 z "
       style="display:inline;opacity:1;fill:#4ebc9e;fill-opacity:1;stroke:none;stroke-width:0.39575195;stroke-linecap:round;stroke-linejoin:round;stroke-miterlimit:4;stroke-dasharray:none;stroke-opacity:1"
       id="path947"
       d="m 154,111.3418 c -0.34183,2.1e-4 -0.67866,0.18568 -0.86133,0.47461 -0.18267,0.28893 -0.205,0.67157 -0.0586,0.98047 a 0.56915735,0.56915735 0 0 0 0,0.002 c 0.0743,0.15528 0.15287,0.31049 0.23242,0.46289 a 0.56915735,0.56915735 0 0 0 0,0.002 c 0.72224,1.37273 1.65333,2.61213 2.70703,3.58594 a 0.56915735,0.56915735 0 0 0 0.002,0 c 0.37188,0.3423 1.00704,0.3423 1.37891,0 a 0.56915735,0.56915735 0 0 0 0.002,0 c 1.05371,-0.97381 1.98479,-2.21321 2.70704,-3.58594 a 0.56915735,0.56915735 0 0 0 0.006,-0.0137 l 0.002,-0.006 c 0.0754,-0.14853 0.15036,-0.29967 0.22265,-0.45508 a 0.56915735,0.56915735 0 0 0 0,-0.002 c 0.14279,-0.30885 0.11879,-0.68987 -0.0645,-0.97656 -0.18324,-0.2867 -0.51912,-0.46863 -0.85937,-0.46875 z"
       transform="matrix(4.6175502,0,0,4.6175502,-690.51045,-219.43625)"
       inkscape:export-xdpi="96"
       inkscape:export-ydpi="96" />
    <path
       inkscape:connector-curvature="0"
       id="path949"
       d="m 29.659444,224.90942 c -3.651721,0.31002 -7.308484,0.70497 -10.609485,2.17991 -14.5764266,5.36719 -27.5623436,17.42783 -36.505523,32.90451 -8.041922,13.92917 -11.750179,28.74577 -10.995793,42.06554 0.754355,13.31975 6.330078,25.73036 17.466329,32.15951 13.2498044,7.64118 29.654015,3.38718 44.093563,-6.76022 14.440969,10.14883 30.857003,14.40358 44.107363,6.76022 11.13622,-6.42915 16.71199,-18.83976 17.46633,-32.15951 0.75439,-13.31977 -2.96766,-28.13637 -11.00961,-42.06554 -8.94111,-15.4738 -21.919117,-27.52157 -36.491649,-32.89077 -3.547021,-1.58034 -7.472234,-2.03753 -11.409698,-2.27648 -2.821329,-0.56086 -3.083974,-0.5241 -6.111827,0.0828 z m 3.090366,14.98336 c 0.0182,7e-5 0.03686,7e-5 0.05513,0 0.156102,0.004 0.31259,0.0146 0.469162,0.0146 2.932068,-0.0635 5.468393,0.46391 7.684616,1.47617 0.194415,0.0908 0.392219,0.17397 0.593215,0.24875 10.099328,3.64214 21.141768,13.32567 28.572515,26.18568 6.65641,11.52932 9.48817,23.66922 8.94016,33.34608 -0.54813,9.67689 -4.12185,16.30435 -9.67135,19.50824 -7.254507,4.18461 -19.091379,2.48661 -31.24904,-7.75362 -2.910881,-2.44794 -7.160563,-2.44794 -10.071439,0 -12.156457,10.23859 -23.9810786,11.93696 -31.2352236,7.75353 -5.549541,-3.20383 -9.1232894,-9.83137 -9.6713444,-19.50828 -0.548091,-9.67683 2.283708,-21.81676 8.9401174,-33.3461 h -0.01457 c 7.429517,-12.85719 18.4747216,-22.54228 28.5725266,-26.18566 0.205707,-0.0745 0.408291,-0.15757 0.607028,-0.2484 2.163885,-0.99332 4.630359,-1.52022 7.477736,-1.48999 z"
       style="color:#000000;font-style:normal;font-variant:normal;font-weight:normal;font-stretch:normal;font-size:medium;line-height:normal;font-family:sans-serif;font-variant-ligatures:normal;font-variant-position:normal;font-variant-caps:normal;font-variant-numeric:normal;font-variant-alternates:normal;font-feature-settings:normal;text-indent:0;text-align:start;text-decoration:none;text-decoration-line:none;text-decoration-style:solid;text-decoration-color:#000000;letter-spacing:normal;word-spacing:normal;text-transform:none;writing-mode:lr-tb;direction:ltr;text-orientation:mixed;dominant-baseline:auto;baseline-shift:baseline;text-anchor:start;white-space:normal;shape-padding:0;clip-rule:nonzero;display:inline;overflow:visible;visibility:visible;opacity:1;isolation:auto;mix-blend-mode:normal;color-interpolation:sRGB;color-interpolation-filters:linearRGB;solid-color:#000000;solid-opacity:1;vector-effect:none;fill:#4ebc9e;fill-opacity:1;fill-rule:nonzero;stroke:none;stroke-width:15.64631367;stroke-linecap:round;stroke-linejoin:round;stroke-miterlimit:4;stroke-dasharray:none;stroke-dashoffset:0;stroke-opacity:1;paint-order:fill markers stroke;color-rendering:auto;image-rendering:auto;shape-rendering:auto;text-rendering:auto;enable-background:accumulate"
       sodipodi:nodetypes="cccscccscccccccccccccccccccccc"
       inkscape:export-xdpi="96"
       inkscape:export-ydpi="96" />
    <path
       id="path951"
       style="display:inline;opacity:1;fill:#4ebc9e;fill-opacity:1;stroke:none;stroke-width:10.91160297;stroke-linecap:round;stroke-linejoin:round;stroke-miterlimit:4;stroke-dasharray:none;stroke-opacity:1"
       d="m 52.347503,205.41693 c -2.43551,-1.4061 -5.528317,-0.57708 -6.93447,1.85807 L 30.70877,232.7435 c -1.406216,2.43561 -0.577125,5.52838 1.858011,6.93456 2.435623,1.40614 5.528461,0.57713 6.934643,-1.85816 l 14.70427,-25.46848 c 1.406106,-2.43557 0.577128,-5.52826 -1.858191,-6.93449 z m -38.470166,2.3e-4 c 2.435591,-1.40614 5.528246,-0.57714 6.934531,1.85813 l 14.704236,25.4684 c 1.406174,2.43561 0.577823,5.52838 -1.858165,6.93456 -2.435584,1.40621 -5.528425,0.57712 -6.934602,-1.85817 l -14.70412,-25.46833 c -1.406216,-2.43562 -0.577133,-5.52842 1.85812,-6.93459 z"
       inkscape:connector-curvature="0"
       inkscape:export-xdpi="96"
       inkscape:export-ydpi="96" />
    <g
       aria-label="stashbee"
       style="font-style:normal;font-variant:normal;font-weight:normal;font-stretch:normal;font-size:101.6381073px;line-height:1.25;font-family:Montserrat;-inkscape-font-specification:'Montserrat, Normal';font-variant-ligatures:normal;font-variant-caps:normal;font-variant-numeric:normal;font-feature-settings:normal;text-align:start;letter-spacing:0px;word-spacing:0px;writing-mode:lr-tb;text-anchor:start;fill:#636363;fill-opacity:1;stroke:none;stroke-width:1"
       id="text835"
       transform="translate(-30.405591)">
      <g
         aria-label="stashbee"
         style="font-style:normal;font-weight:normal;font-size:95.97782135px;line-height:1.25;font-family:sans-serif;letter-spacing:0px;word-spacing:0px;fill:#636363;fill-opacity:1;stroke:none;stroke-width:2.39944577"
         id="text829">
        <path
           d="m 176.65385,311.42172 q -6.52649,0 -12.86103,-1.43966 -6.33454,-1.53565 -10.17365,-3.9351 l 5.47074,-12.47711 q 3.55118,2.20749 8.44605,3.55118 4.89486,1.24771 9.69376,1.24771 4.41498,0 6.23855,-0.8638 1.91956,-0.95978 1.91956,-2.68738 0,-1.7276 -2.30347,-2.39945 -2.20749,-0.76782 -7.10236,-1.43966 -6.23855,-0.76783 -10.65353,-2.01554 -4.31901,-1.24771 -7.48627,-4.60693 -3.16727,-3.35923 -3.16727,-9.40583 0,-4.99085 2.97531,-8.82996 2.97531,-3.93509 8.638,-6.14258 5.75867,-2.30347 13.72483,-2.30347 5.66269,0 11.22941,1.15174 5.56671,1.15173 9.30985,3.26324 l -5.47074,12.38114 q -6.9104,-3.83911 -14.97254,-3.83911 -4.319,0 -6.33454,1.05575 -2.01553,0.95978 -2.01553,2.59141 0,1.82357 2.20749,2.5914 2.20749,0.67184 7.29431,1.43966 6.43052,0.95978 10.65354,2.20749 4.22303,1.24772 7.29432,4.60694 3.16727,3.26325 3.16727,9.21387 0,4.89487 -2.97532,8.82996 -2.97531,3.83911 -8.82996,6.0466 -5.75867,2.20749 -13.91678,2.20749 z"
           style="font-style:normal;font-variant:normal;font-weight:800;font-stretch:normal;font-family:Montserrat;-inkscape-font-specification:'Montserrat Ultra-Bold';fill:#636363;fill-opacity:1;stroke-width:2.39944577"
           id="path847"
           inkscape:connector-curvature="0" />
        <path
           d="m 246.12979,308.44641 q -2.30347,1.43967 -5.66269,2.20749 -3.26324,0.76782 -7.00638,0.76782 -10.17365,0 -15.64438,-4.99084 -5.47074,-4.99085 -5.47074,-14.87657 v -17.46796 h -7.58225 V 260.4575 h 7.58225 v -13.53287 h 18.23579 v 13.53287 h 11.90125 v 13.62885 h -11.90125 v 17.27601 q 0,2.78335 1.43966,4.41498 1.53565,1.53564 4.03107,1.53564 3.16727,0 5.56671,-1.63162 z"
           style="font-style:normal;font-variant:normal;font-weight:800;font-stretch:normal;font-family:Montserrat;-inkscape-font-specification:'Montserrat Ultra-Bold';fill:#636363;fill-opacity:1;stroke-width:2.39944577"
           id="path849"
           inkscape:connector-curvature="0" />
        <path
           d="m 275.33255,257.67414 q 12.957,0 19.77143,5.95063 6.81442,5.85464 6.81442,18.04383 v 28.88932 h -16.98807 v -6.71845 q -3.93509,7.58225 -15.35645,7.58225 -6.04661,0 -10.46159,-2.11151 -4.41498,-2.11151 -6.71844,-5.66269 -2.20749,-3.64716 -2.20749,-8.25409 0,-7.3903 5.66269,-11.42136 5.66269,-4.12705 17.46796,-4.12705 h 10.36561 q -0.47989,-8.25409 -11.03745,-8.25409 -3.74314,0 -7.58225,1.24771 -3.83911,1.15173 -6.52649,3.26324 l -6.14258,-12.38113 q 4.319,-2.87934 10.46158,-4.41498 6.23856,-1.63163 12.47712,-1.63163 z m -0.67185,42.23024 q 3.16727,0 5.56671,-1.53564 2.39945,-1.53565 3.45521,-4.51096 v -4.51096 h -7.87018 q -7.96616,0 -7.96616,5.27878 0,2.39945 1.82357,3.83912 1.82358,1.43966 4.99085,1.43966 z"
           style="font-style:normal;font-variant:normal;font-weight:800;font-stretch:normal;font-family:Montserrat;-inkscape-font-specification:'Montserrat Ultra-Bold';fill:#636363;fill-opacity:1;stroke-width:2.39944577"
           id="path851"
           inkscape:connector-curvature="0" />
        <path
           d="m 332.43035,311.42172 q -6.52649,0 -12.86102,-1.43966 -6.33454,-1.53565 -10.17365,-3.9351 l 5.47073,-12.47711 q 3.55118,2.20749 8.44605,3.55118 4.89487,1.24771 9.69376,1.24771 4.41498,0 6.23856,-0.8638 1.91956,-0.95978 1.91956,-2.68738 0,-1.7276 -2.30347,-2.39945 -2.20749,-0.76782 -7.10236,-1.43966 -6.23856,-0.76783 -10.65354,-2.01554 -4.319,-1.24771 -7.48627,-4.60693 -3.16727,-3.35923 -3.16727,-9.40583 0,-4.99085 2.97531,-8.82996 2.97532,-3.93509 8.63801,-6.14258 5.75867,-2.30347 13.72483,-2.30347 5.66269,0 11.2294,1.15174 5.56672,1.15173 9.30985,3.26324 l -5.47073,12.38114 q -6.91041,-3.83911 -14.97254,-3.83911 -4.31901,0 -6.33454,1.05575 -2.01554,0.95978 -2.01554,2.59141 0,1.82357 2.20749,2.5914 2.20749,0.67184 7.29432,1.43966 6.43051,0.95978 10.65354,2.20749 4.22302,1.24772 7.29431,4.60694 3.16727,3.26325 3.16727,9.21387 0,4.89487 -2.97531,8.82996 -2.97532,3.83911 -8.82996,6.0466 -5.75867,2.20749 -13.91679,2.20749 z"
           style="font-style:normal;font-variant:normal;font-weight:800;font-stretch:normal;font-family:Montserrat;-inkscape-font-specification:'Montserrat Ultra-Bold';fill:#636363;fill-opacity:1;stroke-width:2.39944577"
           id="path853"
           inkscape:connector-curvature="0" />
        <path
           d="m 399.89076,257.67414 q 9.69376,0 15.54841,5.75867 5.95062,5.75867 5.95062,17.37199 v 29.75312 h -18.23578 v -26.77781 q 0,-10.65354 -8.54203,-10.65354 -4.70291,0 -7.58225,3.07129 -2.78335,3.07129 -2.78335,9.21387 v 25.14619 h -18.23579 v -71.21554 h 18.23579 v 23.99445 q 2.97531,-2.78335 7.00638,-4.22302 4.03107,-1.43967 8.638,-1.43967 z"
           style="font-style:normal;font-variant:normal;font-weight:800;font-stretch:normal;font-family:Montserrat;-inkscape-font-specification:'Montserrat Ultra-Bold';fill:#636363;fill-opacity:1;stroke-width:2.39944577"
           id="path855"
           inkscape:connector-curvature="0" />
        <path
           d="m 465.47362,257.67414 q 7.10236,0 12.86103,3.26325 5.85464,3.26324 9.21387,9.40583 3.4552,6.0466 3.4552,14.10873 0,8.06214 -3.4552,14.20472 -3.35923,6.14258 -9.21387,9.50181 -5.75867,3.26324 -12.86103,3.26324 -10.26963,0 -15.35645,-6.0466 v 5.1828 h -17.37199 v -71.21554 h 18.23579 v 23.70652 q 5.27878,-5.37476 14.49265,-5.37476 z m -3.83912,39.25493 q 4.7989,0 7.87019,-3.26324 3.07129,-3.35923 3.07129,-9.21388 0,-5.75866 -3.07129,-9.02191 -3.07129,-3.26325 -7.87019,-3.26325 -4.79889,0 -7.87018,3.26325 -3.07129,3.26325 -3.07129,9.02191 0,5.85465 3.07129,9.21388 3.07129,3.26324 7.87018,3.26324 z"
           style="font-style:normal;font-variant:normal;font-weight:800;font-stretch:normal;font-family:Montserrat;-inkscape-font-specification:'Montserrat Ultra-Bold';fill:#636363;fill-opacity:1;stroke-width:2.39944577"
           id="path857"
           inkscape:connector-curvature="0" />
        <path
           d="m 552.65145,284.64391 q 0,0.19196 -0.28793,4.51096 h -37.81526 q 1.15173,4.03107 4.41498,6.23856 3.35922,2.11151 8.35007,2.11151 3.74313,0 6.43051,-1.05576 2.78336,-1.05575 5.56671,-3.4552 l 9.59779,9.98169 q -7.58225,8.44605 -22.17088,8.44605 -9.11789,0 -16.0283,-3.4552 -6.9104,-3.4552 -10.74951,-9.59778 -3.74314,-6.14258 -3.74314,-13.91679 0,-7.67822 3.64716,-13.72482 3.74313,-6.14258 10.26963,-9.59779 6.52649,-3.4552 14.6846,-3.4552 7.77421,0 14.10874,3.26325 6.33454,3.16727 9.9817,9.30985 3.74313,6.0466 3.74313,14.39667 z m -27.73759,-14.01276 q -4.22302,0 -7.10236,2.39944 -2.78335,2.39945 -3.55118,6.5265 h 21.30708 q -0.76782,-4.12705 -3.64716,-6.5265 -2.78335,-2.39944 -7.00638,-2.39944 z"
           style="font-style:normal;font-variant:normal;font-weight:800;font-stretch:normal;font-family:Montserrat;-inkscape-font-specification:'Montserrat Ultra-Bold';fill:#636363;fill-opacity:1;stroke-width:2.39944577"
           id="path859"
           inkscape:connector-curvature="0" />
        <path
           d="m 614.32473,284.64391 q 0,0.19196 -0.28793,4.51096 h -37.81526 q 1.15173,4.03107 4.41498,6.23856 3.35922,2.11151 8.35007,2.11151 3.74313,0 6.43051,-1.05576 2.78336,-1.05575 5.56671,-3.4552 l 9.59779,9.98169 q -7.58225,8.44605 -22.17088,8.44605 -9.11789,0 -16.0283,-3.4552 -6.9104,-3.4552 -10.74951,-9.59778 -3.74314,-6.14258 -3.74314,-13.91679 0,-7.67822 3.64716,-13.72482 3.74313,-6.14258 10.26963,-9.59779 6.52649,-3.4552 14.6846,-3.4552 7.77421,0 14.10874,3.26325 6.33454,3.16727 9.9817,9.30985 3.74313,6.0466 3.74313,14.39667 z m -27.73759,-14.01276 q -4.22302,0 -7.10236,2.39944 -2.78336,2.39945 -3.55118,6.5265 h 21.30708 q -0.76782,-4.12705 -3.64716,-6.5265 -2.78336,-2.39944 -7.00638,-2.39944 z"
           style="font-style:normal;font-variant:normal;font-weight:800;font-stretch:normal;font-family:Montserrat;-inkscape-font-specification:'Montserrat Ultra-Bold';fill:#636363;fill-opacity:1;stroke-width:2.39944577"
           id="path861"
           inkscape:connector-curvature="0" />
      </g>
    </g>
  </g>
</svg>
